Patient4_TMGait_0pt4_01_right_35_GRF.mot
version=1
nRows=32
nColumns=19
inDegrees=no
endheader
time	F1x	F1y	F1z	M1x	M1y	M1z	F2x	F2y	F2z	M2x	M2y	M2z	EC1x	EC1y	EC1z	EC2x	EC2y	EC2z
45.54	-15.4088	770.7232	60.3594	-272.2328	-60.0514	802.0411	-7.8549	-14.6141	-1.2089	-2.202	2.5191	-19.2741	-0.0592	0.0182	-0.0073	-0.0462	0.0165	0.9585
45.5536	-10.6564	757.6468	60.9116	-267.7924	-59.9948	788.5231	-5.5965	-9.2228	-0.83467	-1.2432	1.8407	-12.2079	-0.0592	0.0182	-0.0073	-0.0462	0.0165	0.9585
45.5673	-6.2043	743.9436	60.6813	-263.221	-58.9642	773.3915	-3.6524	-4.6288	-0.53146	-0.42083	1.2774	-6.2095	-0.0592	0.0182	-0.0073	-0.0462	0.0165	0.9585
45.5809	-2.2208	730.9919	59.732	-258.9993	-57.0355	758.0501	-2.1526	-1.0971	-0.31033	0.21722	0.85884	-1.6175	-0.0592	0.0182	-0.0073	-0.0462	0.0165	0.9585
45.5946	1.3106	720.0906	58.2446	-255.5683	-54.4159	743.9471	-1.1068	1.3843	-0.16672	0.67213	0.58116	1.5923	-0.0592	0.0182	-0.0073	-0.0462	0.0165	0.9585
45.6082	4.4816	712.2759	56.4977	-253.2659	-51.4147	732.307	-0.45188	2.9469	-0.089864	0.9633	0.42298	3.5975	-0.0592	0.0182	-0.0073	-0.0462	0.0165	0.9585
45.6219	7.4079	708.1992	54.7418	-252.2917	-48.3111	723.9735	-0.12161	3.7764	-0.063666	1.1186	0.35924	4.6533	-0.0592	0.0182	-0.0073	-0.0462	0.0165	0.9585
45.6355	10.1915	708.0886	53.1754	-252.6993	-45.3325	719.3427	-0.023042	4.0459	-0.081926	1.1611	0.37328	4.9892	-0.0592	0.0182	-0.0073	-0.0462	0.0165	0.9585
45.6491	12.9307	711.7719	51.9233	-254.406	-42.6215	718.3587	-0.086539	3.8948	-0.13372	1.1054	0.45324	4.7987	-0.0592	0.0182	-0.0073	-0.0462	0.0165	0.9585
45.6628	15.734	718.7248	51.0404	-257.2106	-40.2374	720.5644	-0.26024	3.4004	-0.2177	0.9512	0.59306	4.1935	-0.0592	0.0182	-0.0073	-0.0462	0.0165	0.9585
45.6764	18.6922	728.1449	50.5441	-260.8177	-38.1944	725.1994	-0.4881	2.5878	-0.32731	0.68727	0.77377	3.2111	-0.0592	0.0182	-0.0073	-0.0462	0.0165	0.9585
45.6901	21.868	739.0784	50.4134	-264.8808	-36.4694	731.3385	-0.72639	1.4604	-0.46187	0.29999	0.98058	1.8646	-0.0592	0.0182	-0.0073	-0.0462	0.0165	0.9585
45.7037	25.2802	750.543	50.6194	-269.0404	-35.0357	738.0347	-0.91379	-0.0063116	-0.60529	-0.22399	1.1767	0.12202	-0.0592	0.0182	-0.0073	-0.0462	0.0165	0.9585
45.7174	28.9295	761.6037	51.1152	-272.9513	-33.8521	744.4004	-0.98518	-1.7894	-0.74092	-0.87641	1.3208	-1.985	-0.0592	0.0182	-0.0073	-0.0462	0.0165	0.9585
45.731	32.7732	771.4098	51.8596	-276.2927	-32.8928	749.6525	-0.84247	-3.762	-0.83283	-1.6075	1.339	-4.3119	-0.0592	0.0182	-0.0073	-0.0462	0.0165	0.9585
45.7446	36.7287	779.2022	52.7946	-278.7732	-32.1261	753.1263	-0.36595	-5.6446	-0.82671	-2.3069	1.1272	-6.5443	-0.0592	0.0182	-0.0073	-0.0462	0.0165	0.9585
45.7583	40.6972	784.2906	53.872	-280.123	-31.5346	754.2412	0.56556	-6.9318	-0.63575	-2.7774	0.54192	-8.0985	-0.0592	0.0182	-0.0073	-0.0462	0.0165	0.9585
45.7719	44.5413	786.0904	55.0323	-280.1117	-31.1058	752.544	2.0997	-6.8208	-0.15628	-2.7057	-0.59011	-8.0454	-0.0592	0.0182	-0.0073	-0.0462	0.0165	0.9585
45.7856	48.1035	784.2449	56.2163	-278.5951	-30.8429	747.8125	4.3376	-4.1486	0.72747	-1.6434	-2.4445	-5.0256	-0.0592	0.0182	-0.0073	-0.0462	0.0165	0.9585
45.7992	51.2311	778.7046	57.358	-275.5473	-30.7459	740.1108	7.2886	2.5678	2.128	0.98158	-5.153	2.6903	-0.0592	0.0182	-0.0073	-0.0462	0.0165	0.9585
45.8129	53.7903	769.6651	58.4058	-271.0393	-30.8254	729.7245	10.7927	15.0455	4.1228	5.8262	-8.736	17.1034	-0.0592	0.0182	-0.0073	-0.0462	0.0165	0.9585
45.8265	55.6637	757.3856	59.2872	-265.1802	-31.0662	716.9679	14.4064	34.975	6.6929	13.5329	-12.9964	40.1886	-0.0592	0.0182	-0.0073	-0.0462	0.0165	0.9585
45.8401	56.7463	742.0158	59.8956	-258.0625	-31.4146	702.0119	17.2761	63.5243	9.655	24.5399	-17.3885	73.3223	-0.0592	0.0182	-0.0073	-0.0462	0.0165	0.9585
45.8538	56.9714	723.4228	60.0603	-249.7091	-31.7397	684.6991	18.0058	100.6157	12.5623	38.8001	-20.8651	116.4608	-0.0592	0.0182	-0.0073	-0.0462	0.0165	0.9585
45.8674	56.311	701.135	59.5744	-240.0565	-31.8561	664.4849	14.9572	144.2327	14.6183	55.5071	-21.9086	167.3434	-0.0592	0.0182	-0.0073	-0.0462	0.0165	0.9585
45.8811	54.8204	674.5669	58.2109	-229.0304	-31.5247	640.6498	7.8328	190.7397	14.8354	73.1939	-19.2947	221.8641	-0.0592	0.0182	-0.0073	-0.0462	0.0165	0.9585
45.8947	52.6747	643.365	55.8456	-216.6446	-30.5516	612.627	-1.8989	235.7187	12.764	90.1307	-13.1022	274.8547	-0.0592	0.0182	-0.0073	-0.0462	0.0165	0.9585
45.9084	50.1095	607.4719	52.5384	-202.9962	-28.8788	580.1138	-12.4352	276.3374	8.5972	105.2286	-4.2473	322.8549	-0.0592	0.0182	-0.0073	-0.0462	0.0165	0.9585
45.922	47.3052	566.9419	48.4883	-188.1763	-26.5907	542.9445	-22.6081	312.8081	3.001	118.5827	6.0789	365.9621	-0.0592	0.0182	-0.0073	-0.0462	0.0165	0.9585
45.9356	44.2874	521.7913	43.9326	-172.2089	-23.8699	501.0086	-31.7548	347.0044	-3.2884	130.944	16.7983	406.2663	-0.0592	0.0182	-0.0073	-0.0462	0.0165	0.9585
45.9493	40.9428	472.236	39.0359	-155.1413	-20.8852	454.4951	-39.5439	381.0243	-9.6362	143.1536	27.077	446.0992	-0.0592	0.0182	-0.0073	-0.0462	0.0165	0.9585
45.9629	37.0901	418.9363	33.9215	-137.1407	-17.801	404.0702	-45.7805	416.621	-15.7597	155.8971	36.5228	487.3478	-0.0592	0.0182	-0.0073	-0.0462	0.0165	0.9585
